<svg height="512pt" viewBox="0 -13 512.001 512" width="512pt" xmlns="http://www.w3.org/2000/svg"><path d="m256 0c-141.160156 0-256 114.839844-256 256 0 95.28125 52.523438 182.132812 137.070312 226.664062 7.332032 3.859376 16.402344 1.046876 20.265626-6.28125 3.859374-7.332031 1.046874-16.402343-6.285157-20.261718-74.667969-39.328125-121.050781-116.007813-121.050781-200.121094 0-124.617188 101.382812-226 226-226s226 101.382812 226 226c0 85.484375-47.484375 162.734375-123.921875 201.605469-7.382813 3.753906-10.324219 12.785156-6.570313 20.167969 2.648438 5.207031 7.917969 8.203124 13.382813 8.203124 2.289063 0 4.609375-.523437 6.789063-1.632812 41.507812-21.105469 76.554687-53.152344 101.34375-92.671875 25.5-40.65625 38.976562-87.566406 38.976562-135.671875 0-141.160156-114.839844-256-256-256zm0 0"/><path d="m406.542969 350.660156c17.878906-28.339844 27.328125-61.074218 27.328125-94.660156 0-98.078125-79.792969-177.875-177.871094-177.875-98.082031 0-177.875 79.796875-177.875 177.875 0 33.585938 9.449219 66.316406 27.328125 94.660156 17.382813 27.546875 41.925781 49.820313 70.980469 64.410156 7.40625 3.714844 16.421875.726563 20.136718-6.675781 3.714844-7.40625.730469-16.421875-6.675781-20.136719-50.4375-25.324218-81.769531-76-81.769531-132.257812 0-81.539062 66.335938-147.875 147.875-147.875 81.535156 0 147.871094 66.335938 147.871094 147.875 0 56.257812-31.332032 106.9375-81.769532 132.257812-7.40625 3.71875-10.394531 12.730469-6.675781 20.136719 2.632813 5.242188 7.921875 8.273438 13.417969 8.273438 2.261719 0 4.558594-.515625 6.71875-1.597657 29.054688-14.589843 53.601562-36.859374 70.980469-64.410156zm0 0"/><path d="m355.746094 256c0-55-44.746094-99.746094-99.746094-99.746094s-99.746094 44.746094-99.746094 99.746094c0 37.953125 21.125 72.136719 55.128906 89.203125 2.15625 1.082031 4.453126 1.597656 6.714844 1.597656 5.496094 0 10.785156-3.03125 13.417969-8.273437 3.714844-7.40625.726563-16.417969-6.675781-20.136719-23.800782-11.945313-38.585938-35.851563-38.585938-62.390625 0-38.457031 31.289063-69.746094 69.746094-69.746094s69.746094 31.289063 69.746094 69.746094c0 26.535156-14.78125 50.441406-38.582032 62.386719-7.402343 3.71875-10.390624 12.730469-6.675781 20.136719 3.71875 7.402343 12.734375 10.390624 20.136719 6.675781 34-17.070313 55.121094-51.25 55.121094-89.199219zm0 0"/></svg>